<svg xmlns="http://www.w3.org/2000/svg" version="1.1" xmlns:xlink="http://www.w3.org/1999/xlink" width="2000" height="249" viewBox="0 0 2000 249"><svg xml:space="preserve" width="2000" height="249" data-version="2" data-id="lg_FvULz6nDS2NFEsFAYM" viewBox="0 0 592 249" x="0" y="0"><rect width="100%" height="100%" fill="transparent"></rect><path fill="#fff" d="M586.001 234.016q-6.12 4.26-12.63 4.26-6.52 0-9.98-4.13-3.46-4.12-4.52-13.96l-10.11-144.44-60.38 150.82q-2.66 7.18-9.97 7.05-7.32-.13-9.71-7.05l-58.79-151.09-9.84 143.91q-1.6 19.15-14.1 19.15-6.38 0-12.5-5.58 3.72-3.2 4.79-14.1l11.7-155.88v-2.13q0-7.71-3.72-12.23 8.24-5.32 16.75-5.32 17.03 0 24.74 21.81l51.87 131.94 54-131.67q7.71-22.08 26.07-22.08 7.18 0 14.89 4.52-3.99 3.99-3.99 12.24v2.12l11.44 156.41q.53 11.71 3.99 15.43m-424.115-75.214-.135 48.352-33.788-33.787v-48.488zm49.002-.785-47.513.135-34.247-34.247h47.648zm0-69.713-34.112 34.084h-47.973l34.247-34.247zm-84.44 36.44v47.973l-34.41 34.437-.163-47.838zm35.438-37.578-33.923 33.923V72.926l33.788-33.787zm-35.439-13.59v47.648L91.875 86.68l.163-47.54zm-.974 48.812H76.985L42.873 88.304l48.352-.163zm-.325 1.517L90.9 158.152l-48.027-.135 34.112-34.112zm38.227 35.736h48.867v48.867h-48.867zm48.867-121.856v48.867h-48.867V37.785zM90.386 85.163v1.49H41.52V37.784h48.867zM41.52 159.641h48.867v48.867H41.52zm137.125-36.494 34.545-34.519 34.545 34.519-34.545 34.545zM92.335 36.81l34.546-34.518 34.518 34.49-34.518 34.573zM6 123.147l34.545-34.519 34.545 34.519-34.572 34.545zm86.335 86.335 34.518-34.545 34.546 34.545L126.853 244z"></path></svg></svg>